<?xml version="1.0" encoding="utf-8"?>
<!-- Generator: Adobe Illustrator 22.1.0, SVG Export Plug-In . SVG Version: 6.00 Build 0)  -->
<svg version="1.1" id="Layer_1" xmlns="http://www.w3.org/2000/svg" xmlns:xlink="http://www.w3.org/1999/xlink" x="0px" y="0px"
	 viewBox="0 0 792 612" style="enable-background:new 0 0 792 612;" xml:space="preserve">
<style type="text/css">
	.st0{fill:#231F20;}
	.st1{fill:none;stroke:#231F20;stroke-width:12;stroke-linecap:round;stroke-miterlimit:10;}
</style>
<path class="st0" d="M216.5,160.9H101.8c-4.8,0-8.7-3.9-8.7-8.7v0c0-4.8,3.9-8.7,8.7-8.7h114.7c4.8,0,8.7,3.9,8.7,8.7v0
	C225.2,156.9,221.3,160.9,216.5,160.9z"/>
<path class="st0" d="M132.7,143.4c0,0,24.3-27.1,52.8,0H132.7z"/>
<path class="st1" d="M108.1,163.8l-27.9,63.6c-10,22.8,6.7,48.3,31.6,48.3h0c24.9,0,41.5-25.5,31.6-48.3l-27.9-63.6
	C114.1,160.6,109.5,160.6,108.1,163.8z"/>
<path class="st1" d="M202.4,163.4l-27.9,63.6c-10,22.8,6.7,48.3,31.6,48.3h0c24.9,0,41.5-25.5,31.6-48.3l-27.9-63.6
	C208.4,160.1,203.8,160.1,202.4,163.4z"/>
<path class="st0" d="M80.3,227.4h63.1c0,0,10.9,46.9-27.6,48.3S80.3,227.4,80.3,227.4z"/>
<path class="st0" d="M173.9,226.9H237c0,0,10.9,46.9-27.6,48.3S173.9,226.9,173.9,226.9z"/>
</svg>
