<?xml version="1.0" encoding="utf-8"?>
<!-- Generator: Adobe Illustrator 22.1.0, SVG Export Plug-In . SVG Version: 6.00 Build 0)  -->
<svg version="1.1" id="Layer_1" xmlns="http://www.w3.org/2000/svg" xmlns:xlink="http://www.w3.org/1999/xlink" x="0px" y="0px"
	 viewBox="0 0 315 256" style="enable-background:new 0 0 315 256;" xml:space="preserve">
<path d="M225.7,42c-33.4-33.4-87.6-33.4-121.1,0s-33.4,87.6,0,121.1c33.4,33.4,87.6,33.4,121,0c33.4-33.3,33.5-87.5,0.2-120.9
	C225.8,42.1,225.8,42.1,225.7,42z M205.1,142.5c-22.1,22.1-57.8,22.1-79.9,0s-22.1-57.8,0-79.9s57.8-22.1,79.9,0c0,0,0,0,0,0
	C227.1,84.7,227.1,120.4,205.1,142.5z"/>
<path d="M206.4,173.7l29.4-29.4l59.8,59.8l-29.4,29.4L206.4,173.7z"/>
</svg>
